<?xml version="1.0" encoding="UTF-8"?>
<svg version="1.1" xmlns="http://www.w3.org/2000/svg" width="368" height="368">
<path d="M0 0 C1.32 0.33 2.64 0.66 4 1 C4 1.66 4 2.32 4 3 C4.66 2.67 5.32 2.34 6 2 C8.9375 1.6875 8.9375 1.6875 12 2 C14.85858662 4.94770323 15.3952704 7.45816327 16 11.4375 C17.84672588 19.71205628 23.32169269 25.02283441 29 31 C33.06742147 29.52640553 36.51050823 27.5168193 40.1875 25.25 C65.78051665 10.21564488 96.60874462 8.93301433 124.86328125 15.9609375 C140.1058856 20.57792399 154.22494441 28.2990889 166 39 C166.67675781 39.53625 167.35351562 40.0725 168.05078125 40.625 C182.10897431 51.89409263 191.98436011 69.31633686 198 86 C198.35835937 86.98355469 198.71671875 87.96710938 199.0859375 88.98046875 C200.98768171 94.85013791 202.07286676 100.08563329 202.421875 106.23828125 C202.42600628 117.13224831 202.42600628 117.13224831 206.49853516 126.71142578 C210.33103036 129.32699214 214.42110954 130.3285907 219 131 C218.67 130.01 218.34 129.02 218 128 C217.49820747 122.75996977 217.350975 118.37293749 219.625 113.5625 C224.01772827 108.8229774 226.93577954 106.80061147 233.40625 106.46875 C235.43749923 106.45818433 237.468957 106.46918772 239.5 106.5 C241.02947266 106.47679687 241.02947266 106.47679687 242.58984375 106.453125 C248.71191859 106.48496934 252.35046931 106.919494 257 111 C261.75521159 116.26928852 262.35942628 120.36026447 262.27734375 127.2734375 C261.75427998 132.41567003 259.1510054 134.93532001 255.5 138.3125 C251.91942585 140.03884825 249.69411991 140.33844182 245.78125 140.60546875 C244.69908203 140.6830542 243.61691406 140.76063965 242.50195312 140.84057617 C241.67630859 140.89318604 240.85066406 140.9457959 240 141 C241.08269165 141.46055786 241.08269165 141.46055786 242.18725586 141.93041992 C245.44618624 143.32980741 248.69161282 144.75813532 251.9375 146.1875 C253.07380859 146.67025391 254.21011719 147.15300781 255.38085938 147.65039062 C256.46044922 148.13056641 257.54003906 148.61074219 258.65234375 149.10546875 C259.65257568 149.54012451 260.65280762 149.97478027 261.68334961 150.42260742 C264 152 264 152 264.83422852 154.6809082 C264.88893311 155.4462085 264.9436377 156.21150879 265 157 C266.98 157.66 268.96 158.32 271 159 C269.29956986 164.96150801 266.43785444 170.25813069 263.625 175.75 C257.7255357 187.41698321 252.20487282 199.22827508 246.77539062 211.11962891 C243.24698048 218.83971619 239.68256664 226.5433199 236.125 234.25 C235.74153412 235.08092163 235.35806824 235.91184326 234.96298218 236.76794434 C230.01645428 247.48561674 225.06293388 258.20000773 220.07830811 268.90002441 C219.21887286 270.74514562 218.36063439 272.59082412 217.50244141 274.43652344 C214.43479765 281.01045092 211.27866972 287.52883 208 294 C195.39149795 288.42499473 182.92843704 282.61239614 170.56466675 276.51467896 C156.32427494 269.49250976 142.0497387 262.57624396 127.57617188 256.04589844 C121.7447433 253.39009088 116.34684673 250.53674976 111 247 C112.75990784 241.08030998 115.39694605 235.58365008 118 230 C116.9275 230.30679688 115.855 230.61359375 114.75 230.9296875 C109.22870632 232.31001092 103.66091531 232.69281498 98 233.125 C96.93910156 233.21136719 95.87820312 233.29773438 94.78515625 233.38671875 C92.19051971 233.59709469 89.5955579 233.8013734 87 234 C90.7315726 239.81859839 94.83388553 243.60431862 100.375 247.6875 C101.10460937 248.24244141 101.83421875 248.79738281 102.5859375 249.36914062 C108.68391815 253.94807074 114.6051609 257.83565685 122 260 C121.53863855 265.13387312 118.97533623 268.35311882 115.9375 272.3125 C115.48439453 272.95767578 115.03128906 273.60285156 114.56445312 274.26757812 C112.64968126 276.77028824 111.15352269 278.63925717 108.08813477 279.59790039 C103.30709723 279.9384564 100.41384241 278.4147747 96.82568359 275.3918457 C95.95290771 274.61006958 95.95290771 274.61006958 95.0625 273.8125 C93.76587848 272.71690636 92.46763451 271.62323064 91.16796875 270.53125 C90.49427246 269.95632813 89.82057617 269.38140625 89.12646484 268.7890625 C85.45259341 265.69811762 81.67119496 262.75091872 77.875 259.8125 C77.16480713 259.24829346 76.45461426 258.68408691 75.72290039 258.1027832 C72.11331858 255.30577782 69.61139737 253.63605481 65 253 C62.6875 250.4375 62.6875 250.4375 61 248 C57.65074302 248.62934202 56.73288385 249.22350535 53.9375 251.5625 C49.91151608 254.59281048 46.52900046 254.29297472 41.64453125 254.0390625 C38.19583778 253.98812168 35.28963262 255.03246099 32 256 C29.0625 256.1875 29.0625 256.1875 26 255 C21.57603759 250.88841662 17.88038511 246.31489017 15 241 C15 240.34 15 239.68 15 239 C14.34 238.67 13.68 238.34 13 238 C12.04506913 234.85434536 11.57638659 233.17978164 12 230 C13.59554042 227.51095695 15.41264837 225.39451564 17.359375 223.171875 C19.56174931 220.25635092 19.58027924 217.56762646 20 214 C22.5234375 211.80078125 22.5234375 211.80078125 25 210 C23.56720703 208.74509766 23.56720703 208.74509766 22.10546875 207.46484375 C-0.41304147 187.35809141 -15.11683099 161.06194753 -17.16845703 130.48974609 C-18.42405961 102.48297896 -11.02638209 78.01661257 5 55 C-5.54760109 44.19465678 -17.06595778 32.58418017 -32.30078125 29.8359375 C-35.52974585 28.83593978 -36.94043445 27.65844631 -39 25 C-39.125 21.5 -39.125 21.5 -39 18 C-39.88064927 15.64630193 -39.88064927 15.64630193 -41 14 C-40.154375 14.185625 -39.30875 14.37125 -38.4375 14.5625 C-34.95740791 15.18525314 -34.95740791 15.18525314 -31.375 14.3125 C-28 14 -28 14 -25.90625 15.6640625 C-23.8896244 18.13525535 -23.12542169 20.0568083 -22.125 23.0625 C-18.93573379 30.42911796 -13.21837751 34.01785029 -6.90917969 38.57666016 C-3.6956927 40.97239278 -0.66522954 43.57771545 2.375 46.1875 C3.22288086 46.91066406 3.22288086 46.91066406 4.08789062 47.6484375 C5.39395631 48.76325202 6.69730907 49.88124384 8 51 C8.80824219 50.18015625 9.61648437 49.3603125 10.44921875 48.515625 C11.52850998 47.42694863 12.60794469 46.3384145 13.6875 45.25 C14.21794922 44.71117187 14.74839844 44.17234375 15.29492188 43.6171875 C18.37931499 40.51387173 21.51576273 37.66327598 25 35 C20.3465166 25.27597574 14.6216195 20.69682279 5.01171875 16.41015625 C2 15 2 15 0 13 C-0.33333333 7.66666667 -0.33333333 7.66666667 1 5 C0.72057545 3.32345271 0.39171753 1.65391846 0 0 Z " fill="#010268" transform="translate(71,29)"/>
<path d="M0 0 C1.52947266 -0.02320313 1.52947266 -0.02320313 3.08984375 -0.046875 C9.21191859 -0.01503066 12.85046931 0.419494 17.5 4.5 C22.25521159 9.76928852 22.85942628 13.86026447 22.77734375 20.7734375 C22.25427998 25.91567003 19.6510054 28.43532001 16 31.8125 C12.41942585 33.53884825 10.19411991 33.83844182 6.28125 34.10546875 C5.19908203 34.1830542 4.11691406 34.26063965 3.00195312 34.34057617 C2.17630859 34.39318604 1.35066406 34.4457959 0.5 34.5 C1.58269165 34.96055786 1.58269165 34.96055786 2.68725586 35.43041992 C5.94618624 36.82980741 9.19161282 38.25813532 12.4375 39.6875 C13.57380859 40.17025391 14.71011719 40.65300781 15.88085938 41.15039062 C16.96044922 41.63056641 18.04003906 42.11074219 19.15234375 42.60546875 C20.15257568 43.04012451 21.15280762 43.47478027 22.18334961 43.92260742 C24.5 45.5 24.5 45.5 25.33422852 48.1809082 C25.38893311 48.9462085 25.4436377 49.71150879 25.5 50.5 C27.48 51.16 29.46 51.82 31.5 52.5 C29.79956986 58.46150801 26.93785444 63.75813069 24.125 69.25 C18.2255357 80.91698321 12.70487282 92.72827508 7.27539062 104.61962891 C3.74698048 112.33971619 0.18256664 120.0433199 -3.375 127.75 C-3.75846588 128.58092163 -4.14193176 129.41184326 -4.53701782 130.26794434 C-9.48354572 140.98561674 -14.43706612 151.70000773 -19.42169189 162.40002441 C-20.28112714 164.24514562 -21.13936561 166.09082412 -21.99755859 167.93652344 C-25.06520235 174.51045092 -28.22133028 181.02883 -31.5 187.5 C-44.10850205 181.92499473 -56.57156296 176.11239614 -68.93533325 170.01467896 C-83.17572506 162.99250976 -97.4502613 156.07624396 -111.92382812 149.54589844 C-117.7552567 146.89009088 -123.15315327 144.03674976 -128.5 140.5 C-126.74009216 134.58030998 -124.10305395 129.08365008 -121.5 123.5 C-123.10875 123.96019531 -123.10875 123.96019531 -124.75 124.4296875 C-130.27129368 125.81001092 -135.83908469 126.19281498 -141.5 126.625 C-142.56089844 126.71136719 -143.62179688 126.79773438 -144.71484375 126.88671875 C-147.30948029 127.09709469 -149.9044421 127.3013734 -152.5 127.5 C-148.7684274 133.31859839 -144.66611447 137.10431862 -139.125 141.1875 C-138.39539063 141.74244141 -137.66578125 142.29738281 -136.9140625 142.86914062 C-130.81608185 147.44807074 -124.8948391 151.33565685 -117.5 153.5 C-117.96136145 158.63387312 -120.52466377 161.85311882 -123.5625 165.8125 C-124.01560547 166.45767578 -124.46871094 167.10285156 -124.93554688 167.76757812 C-126.85031874 170.27028824 -128.34647731 172.13925717 -131.41186523 173.09790039 C-136.19290277 173.4384564 -139.08615759 171.9147747 -142.67431641 168.8918457 C-143.54709229 168.11006958 -143.54709229 168.11006958 -144.4375 167.3125 C-145.73412152 166.21690636 -147.03236549 165.12323064 -148.33203125 164.03125 C-149.00572754 163.45632813 -149.67942383 162.88140625 -150.37353516 162.2890625 C-154.04740659 159.19811762 -157.82880504 156.25091872 -161.625 153.3125 C-162.33519287 152.74829346 -163.04538574 152.18408691 -163.77709961 151.6027832 C-167.38668142 148.80577782 -169.88860263 147.13605481 -174.5 146.5 C-176.8125 143.9375 -176.8125 143.9375 -178.5 141.5 C-181.84925698 142.12934202 -182.76711615 142.72350535 -185.5625 145.0625 C-189.58848392 148.09281048 -192.97099954 147.79297472 -197.85546875 147.5390625 C-201.30416222 147.48812168 -204.21036738 148.53246099 -207.5 149.5 C-210.4375 149.6875 -210.4375 149.6875 -213.5 148.5 C-217.92396241 144.38841662 -221.61961489 139.81489017 -224.5 134.5 C-224.5 133.84 -224.5 133.18 -224.5 132.5 C-225.16 132.17 -225.82 131.84 -226.5 131.5 C-227.45493087 128.35434536 -227.92361341 126.67978164 -227.5 123.5 C-225.91997658 121.03516346 -224.17804452 118.99339751 -222.1640625 116.87109375 C-220.20512191 114.50775601 -220.20512191 114.50775601 -220.23046875 111.0390625 C-219.44864606 107.25119429 -219.33673416 106.95119118 -216.38671875 104.90234375 C-214.99974958 104.05935031 -213.59881131 103.23907459 -212.1875 102.4375 C-210.63947014 101.50013939 -209.09400496 100.55853357 -207.55078125 99.61328125 C-206.73174316 99.11650879 -205.91270508 98.61973633 -205.06884766 98.10791016 C-200.55441725 95.28220795 -196.22172548 92.2000663 -191.875 89.125 C-191.04701904 88.54226318 -190.21903809 87.95952637 -189.3659668 87.35913086 C-188.57230713 86.7997583 -187.77864746 86.24038574 -186.9609375 85.6640625 C-186.20393555 85.13200195 -185.44693359 84.59994141 -184.66699219 84.05175781 C-183.25018103 83.03719588 -181.84875604 82.00070254 -180.46582031 80.94042969 C-178.86263042 79.721871 -177.18655141 78.60029425 -175.5 77.5 C-174.51 77.83 -173.52 78.16 -172.5 78.5 C-172.73332031 79.01691406 -172.96664062 79.53382813 -173.20703125 80.06640625 C-173.6496126 83.742782 -171.92358695 86.31796253 -170.1875 89.4375 C-169.82938232 90.09339111 -169.47126465 90.74928223 -169.10229492 91.42504883 C-164.54535316 99.52227134 -158.6106437 109.73699679 -150.5 114.5 C-146.27731269 113.42334849 -142.70269786 111.64744417 -138.9375 109.48828125 C-137.38023193 108.60305786 -137.38023193 108.60305786 -135.79150391 107.69995117 C-134.70530762 107.07709229 -133.61911133 106.4542334 -132.5 105.8125 C-109.76598792 92.92199597 -109.76598792 92.92199597 -102.5 90.5 C-103.28761719 90.5721875 -104.07523437 90.644375 -104.88671875 90.71875 C-121.97344748 92.17466061 -138.84453173 92.8642267 -153.5 82.5 C-157.20169385 79.09275907 -160.12036381 75.17511082 -160.8359375 70.1328125 C-160.5 67.5 -160.5 67.5 -158.55078125 65.46484375 C-157.64714844 64.79582031 -156.74351562 64.12679687 -155.8125 63.4375 C-134.68961841 47.04483899 -120.50846614 27.19786675 -108.5 3.5 C-107.84 3.5 -107.18 3.5 -106.5 3.5 C-105.91605469 5.24410156 -105.91605469 5.24410156 -105.3203125 7.0234375 C-95.26456046 36.16516044 -75.63445093 67.82336405 -47.5 82.5 C-41.83823635 84.38725455 -36.39004798 84.41127314 -31 81.8125 C-27.72914673 78.78696072 -26.75272523 76.17916475 -26.09375 71.80078125 C-25.42061601 50.34463516 -38.2234369 30.18799948 -50.5 13.5 C-49.84 13.17 -49.18 12.84 -48.5 12.5 C-46.57421875 13.3203125 -46.57421875 13.3203125 -44.1875 14.625 C-38.14478043 17.77810513 -31.87623968 20.11831152 -25.5 22.5 C-23.83131658 23.16160249 -22.16389498 23.82644547 -20.5 24.5 C-20.83 23.51 -21.16 22.52 -21.5 21.5 C-22.00179253 16.25996977 -22.149025 11.87293749 -19.875 7.0625 C-13.62920678 0.32361784 -8.95703652 -0.13588425 0 0 Z " fill="#FCFCFD" transform="translate(310.5,135.5)"/>
<path d="M0 0 C3.67114981 2.09216064 6.87988843 4.42235484 10.125 7.125 C11.08664063 7.92164062 12.04828125 8.71828125 13.0390625 9.5390625 C14.01617187 10.35117188 14.99328125 11.16328125 16 12 C17.83195304 13.50168545 19.6652621 15.00171833 21.5 16.5 C27 21 32.5 25.5 38 30 C36.92819055 32.18444974 35.81766096 34.32716833 34.6328125 36.453125 C25.8958036 52.65959746 23.53037017 69.23797932 28.6796875 87.0703125 C33.88896222 103.43431679 45.26780371 115.57694802 60.16796875 123.734375 C63.43960061 125.196456 64.65993246 125.14265469 68 124 C69.33912557 123.34504586 70.67345104 122.68006624 72 122 C72.32871094 122.65226562 72.65742188 123.30453125 72.99609375 123.9765625 C77.8952304 132.97822821 84.31626752 137.6607819 94 141 C104.28756825 143.63826347 114.54832423 143.63947855 125 142 C127.67350529 141.91912884 130.32437312 141.95305918 133 142 C130.58196268 144.41803732 128.57424294 145.02012072 125.375 146.25 C116.96699825 149.65024438 109.29930595 154.33412753 101.52880859 158.97363281 C98.6947902 160.66487946 95.85113222 162.33779723 93 164 C91.84709473 164.68787598 91.84709473 164.68787598 90.67089844 165.38964844 C87.65109195 167.07706255 85.74688589 168.13142627 82.26953125 167.51953125 C73.53225124 161.669614 68.0740832 151.94821428 63 143 C62.53078125 142.18660156 62.0615625 141.37320313 61.578125 140.53515625 C58.89033376 135.5921977 58.89033376 135.5921977 59.41015625 132.78515625 C59.60480469 132.19605469 59.79945313 131.60695312 60 131 C56.38061005 132.30399814 53.61352971 133.85678084 50.5625 136.1875 C44.62761598 140.57344451 38.61824063 144.84490691 32.5625 149.0625 C31.59062744 149.75432373 30.61875488 150.44614746 29.61743164 151.15893555 C28.69309326 151.79871338 27.76875488 152.43849121 26.81640625 153.09765625 C25.98568604 153.68039307 25.15496582 154.26312988 24.29907227 154.86352539 C22 156 22 156 19.87915039 155.82299805 C16.71843693 154.43872299 14.36131216 152.08411883 11.875 149.75 C11.30168945 149.2127832 10.72837891 148.67556641 10.13769531 148.12207031 C-10.86024788 127.96544704 -22.58002417 100.2514264 -23.35180664 71.24682617 C-23.58126474 44.69007013 -15.70936482 21.42608634 0 0 Z " fill="#3264FC" transform="translate(77,83)"/>
<path d="M0 0 C0.99 0.33 1.98 0.66 3 1 C2.76667969 1.51691406 2.53335938 2.03382813 2.29296875 2.56640625 C1.8503874 6.242782 3.57641305 8.81796253 5.3125 11.9375 C5.67061768 12.59339111 6.02873535 13.24928223 6.39770508 13.92504883 C10.95464684 22.02227134 16.8893563 32.23699679 25 37 C29.24808768 35.91850075 32.84374373 34.12220604 36.6328125 31.953125 C37.68726563 31.355 38.74171875 30.756875 39.828125 30.140625 C41.46007812 29.20476562 41.46007812 29.20476562 43.125 28.25 C51.30303465 23.57683734 59.52978485 19.12373253 68 15 C68.495 15.99 68.495 15.99 69 17 C67.49153952 21.1046938 65.59058516 25.04288946 63.7409668 29.00390625 C62.81921034 30.98557356 61.91978533 32.97636138 61.02148438 34.96875 C60.43883828 36.22978587 59.85489539 37.49022353 59.26953125 38.75 C58.47446167 40.47476563 58.47446167 40.47476563 57.66333008 42.234375 C55.93163675 45.11366783 55.13471786 45.98349032 52 47 C49.72103501 47.42835583 47.42574078 47.77308335 45.125 48.0625 C44.4745874 48.14483887 43.8241748 48.22717773 43.15405273 48.31201172 C36.45437266 49.12776541 29.73704305 49.60553523 23 50 C26.7315726 55.81859839 30.83388553 59.60431862 36.375 63.6875 C37.10460937 64.24244141 37.83421875 64.79738281 38.5859375 65.36914062 C44.68391815 69.94807074 50.6051609 73.83565685 58 76 C57.53863855 81.13387312 54.97533623 84.35311882 51.9375 88.3125 C51.48439453 88.95767578 51.03128906 89.60285156 50.56445312 90.26757812 C48.64968126 92.77028824 47.15352269 94.63925717 44.08813477 95.59790039 C39.30709723 95.9384564 36.41384241 94.4147747 32.82568359 91.3918457 C32.24383301 90.87066162 31.66198242 90.34947754 31.0625 89.8125 C29.76587848 88.71690636 28.46763451 87.62323064 27.16796875 86.53125 C26.49427246 85.95632813 25.82057617 85.38140625 25.12646484 84.7890625 C21.45259341 81.69811762 17.67119496 78.75091872 13.875 75.8125 C13.16480713 75.24829346 12.45461426 74.68408691 11.72290039 74.1027832 C8.11331858 71.30577782 5.61139737 69.63605481 1 69 C-1.3125 66.4375 -1.3125 66.4375 -3 64 C-6.34925698 64.62934202 -7.26711615 65.22350535 -10.0625 67.5625 C-14.08848392 70.59281048 -17.47099954 70.29297472 -22.35546875 70.0390625 C-25.80416222 69.98812168 -28.71036738 71.03246099 -32 72 C-34.9375 72.1875 -34.9375 72.1875 -38 71 C-42.42396241 66.88841662 -46.11961489 62.31489017 -49 57 C-49 56.34 -49 55.68 -49 55 C-49.66 54.67 -50.32 54.34 -51 54 C-51.95493087 50.85434536 -52.42361341 49.17978164 -52 46 C-50.41997658 43.53516346 -48.67804452 41.49339751 -46.6640625 39.37109375 C-44.70512191 37.00775601 -44.70512191 37.00775601 -44.73046875 33.5390625 C-43.94864606 29.75119429 -43.83673416 29.45119118 -40.88671875 27.40234375 C-39.49974958 26.55935031 -38.09881131 25.73907459 -36.6875 24.9375 C-35.13947014 24.00013939 -33.59400496 23.05853357 -32.05078125 22.11328125 C-31.23174316 21.61650879 -30.41270508 21.11973633 -29.56884766 20.60791016 C-25.05441725 17.78220795 -20.72172548 14.7000663 -16.375 11.625 C-15.13302856 10.75089478 -15.13302856 10.75089478 -13.8659668 9.85913086 C-13.07230713 9.2997583 -12.27864746 8.74038574 -11.4609375 8.1640625 C-10.70393555 7.63200195 -9.94693359 7.09994141 -9.16699219 6.55175781 C-7.75018103 5.53719588 -6.34875604 4.50070254 -4.96582031 3.44042969 C-3.36263042 2.221871 -1.68655141 1.10029425 0 0 Z " fill="#3366FD" transform="translate(135,213)"/>
<path d="M0 0 C0.845625 0.185625 1.69125 0.37125 2.5625 0.5625 C6.04259209 1.18525314 6.04259209 1.18525314 9.625 0.3125 C13 0 13 0 15.09375 1.6640625 C17.1103756 4.13525535 17.87457831 6.0568083 18.875 9.0625 C22.06992173 16.42938375 27.76838938 19.97964034 34.06982422 24.55126953 C37.34238072 27.00754961 40.41526114 29.68920352 43.5 32.375 C44.614427 33.34132615 45.72900403 34.30747932 46.84375 35.2734375 C47.36324219 35.72428711 47.88273437 36.17513672 48.41796875 36.63964844 C50.91973467 38.79085827 53.45904483 40.89529316 56 43 C60.18423892 39.49102731 64.19588166 35.91939465 68 32 C71.88014936 33.52059907 73.73906562 35.86078531 76.25 39.125 C76.95640625 40.03507812 77.6628125 40.94515625 78.390625 41.8828125 C78.92171875 42.58148438 79.4528125 43.28015625 80 44 C79.04270084 45.12588014 78.08412105 46.2506715 77.125 47.375 C76.59132813 48.00148437 76.05765625 48.62796875 75.5078125 49.2734375 C74.38567993 50.55836651 73.20628025 51.79371975 72 53 C72.03448075 56.19291746 73.16289487 57.16029686 75.44921875 59.41015625 C76.52033131 60.30432587 77.60042161 61.18781034 78.6875 62.0625 C79.55665039 62.77986328 79.55665039 62.77986328 80.44335938 63.51171875 C85.15468532 67.37794111 89.95507836 71.13266286 94.76635742 74.87329102 C99.31375462 78.42049987 103.71558508 82.11421132 108.09448242 85.86621094 C112.0858767 89.26918881 116.17302312 92.52936071 120.3125 95.75 C132.21153514 105.02967874 132.21153514 105.02967874 135 108 C135 108.66 135 109.32 135 110 C132.33333333 108.66666667 129.66666667 107.33333333 127 106 C128.485 109.96 128.485 109.96 130 114 C133.35458155 114.76522801 133.35458155 114.76522801 137 115 C138.82212748 113.88653129 138.82212748 113.88653129 140 112 C140.36146457 109.71669899 140.36146457 109.71669899 140.1875 107.3125 C140.16042969 106.50425781 140.13335937 105.69601563 140.10546875 104.86328125 C140.07066406 104.24839844 140.03585938 103.63351563 140 103 C139.41992188 102.86464844 138.83984375 102.72929687 138.2421875 102.58984375 C132.69819649 101.06204425 129.56655004 99.14377465 125.8984375 94.71875 C125.60195312 94.1515625 125.30546875 93.584375 125 93 C125.495 91.515 125.495 91.515 126 90 C130.99589131 88.12101433 137.35654969 87.91284723 142.2890625 89.94140625 C147.3556751 92.96809055 150.82526118 96.35683766 153.25 101.8125 C154.81271791 108.45405114 154.56782196 113.24351986 151.26953125 119.17578125 C148.25879047 123.50198415 144.14858169 126.71285458 139 128 C132.55598315 128.82644237 128.0197254 128.24219257 122.6875 124.42578125 C118.35792492 120.76769119 115.33257413 116.67217272 114.8125 110.9296875 C114.67626325 105.90595743 115.51782058 101.8347281 117 97 C114.90326797 95.15750794 112.79846151 93.32606023 110.6875 91.5 C110.09259766 90.97535156 109.49769531 90.45070313 108.88476562 89.91015625 C105.44489513 86.75642701 105.44489513 86.75642701 101 86 C100.18082358 87.72601379 99.36993984 89.4559647 98.5625 91.1875 C98.11003906 92.15042969 97.65757813 93.11335938 97.19140625 94.10546875 C93.26599955 103.6422765 94.01598993 114.57309887 97.62109375 124.08203125 C102.14755068 133.66068091 108.28704967 140.58720281 118 145 C122.90979375 146.69455226 127.92915076 147.89823654 133 149 C130.64088066 152.05022698 128.31120237 154.80961384 125.375 157.3125 C124.78460938 157.82425781 124.19421875 158.33601562 123.5859375 158.86328125 C122 160 122 160 120 160 C119.67 160.99 119.34 161.98 119 163 C116.35912121 165.11270303 114.71438218 165.98338646 111.3125 166.0625 C97.10016383 161.50382613 85.38633025 149.25613784 78.3125 136.4375 C70.61964326 120.0328651 70.05918442 103.00167615 76 86 C77.78689026 81.86553708 79.80868876 77.93183845 82 74 C82.67379668 72.67025557 83.34335808 71.33829877 84 70 C73.89039728 61.37989987 63.64212873 53.00256812 53.09545898 44.91943359 C49.65186953 42.27822905 46.22297211 39.61962478 42.81152344 36.93701172 C41.64372243 36.01926748 40.47378783 35.10423182 39.30175781 34.19189453 C36.30921366 31.8552618 33.37229625 29.47884826 30.49609375 27 C23.51612677 21.08196914 18.08910819 17.70662921 8.9609375 15.87890625 C5.565822 14.87112131 4.12899916 13.80593821 2 11 C1.875 7.5 1.875 7.5 2 4 C1.11935073 1.64630193 1.11935073 1.64630193 0 0 Z " fill="#3264FC" transform="translate(30,43)"/>
<path d="M0 0 C4.1431583 2.31371178 7.71270593 5.12133275 11.3125 8.1875 C11.86228516 8.65091797 12.41207031 9.11433594 12.97851562 9.59179688 C14.32167028 10.72471863 15.66121101 11.8619226 17 13 C15.92819055 15.18444974 14.81766096 17.32716833 13.6328125 19.453125 C4.8958036 35.65959746 2.53037017 52.23797932 7.6796875 70.0703125 C12.88896222 86.43431679 24.26780371 98.57694802 39.16796875 106.734375 C42.43960061 108.196456 43.65993246 108.14265469 47 107 C48.33912557 106.34504586 49.67345104 105.68006624 51 105 C51.32871094 105.65226562 51.65742188 106.30453125 51.99609375 106.9765625 C56.8952304 115.97822821 63.31626752 120.6607819 73 124 C83.28756825 126.63826347 93.54832423 126.63947855 104 125 C106.67350529 124.91912884 109.32437312 124.95305918 112 125 C109.58196268 127.41803732 107.57424294 128.02012072 104.375 129.25 C95.96699825 132.65024438 88.29930595 137.33412753 80.52880859 141.97363281 C77.6947902 143.66487946 74.85113222 145.33779723 72 147 C70.84709473 147.68787598 70.84709473 147.68787598 69.67089844 148.38964844 C66.65109195 150.07706255 64.74688589 151.13142627 61.26953125 150.51953125 C52.53225124 144.669614 47.0740832 134.94821428 42 126 C41.53078125 125.18660156 41.0615625 124.37320313 40.578125 123.53515625 C37.89033376 118.5921977 37.89033376 118.5921977 38.41015625 115.78515625 C38.60480469 115.19605469 38.79945313 114.60695313 39 114 C34.07459941 115.72389021 30.55242736 118.51776079 26.5 121.734375 C24 123 24 123 21.578125 122.51171875 C18.38141971 120.63728701 15.55513221 118.46707749 12.75 116.0625 C12.18079834 115.57595947 11.61159668 115.08941895 11.02514648 114.58813477 C-5.5523987 100.06204619 -15.55694735 80.48502836 -17.18457031 58.5078125 C-18.33873244 36.38775559 -13.19542192 17.85397958 0 0 Z " fill="#010268" transform="translate(98,100)"/>
<path d="M0 0 C19.60020609 15.84164385 34.82210908 39.08461437 37.71386719 64.55517578 C38.11915499 69.13066176 38.33492802 73.70188712 38.45703125 78.29296875 C33.60245735 77.04484677 31.4159276 75.63080066 28.45703125 71.60546875 C26.18181039 68.55883968 23.94844439 65.73565523 21.26953125 63.04296875 C17.67893571 58.93943099 16.42766324 53.95636354 14.73046875 48.859375 C7.661972 29.06324759 -7.98255228 14.05242976 -26.47265625 4.83203125 C-48.44016691 -4.99083937 -71.64613384 -5.6117753 -94.16796875 2.98046875 C-101.26817207 5.83346793 -107.37181756 9.76515949 -113.54296875 14.29296875 C-114.29835938 13.53113281 -115.05375 12.76929688 -115.83203125 11.984375 C-117.32081473 10.50631763 -118.82285588 9.03987933 -120.37890625 7.6328125 C-121.91796875 6.23046875 -121.91796875 6.23046875 -124.54296875 3.29296875 C-124.5859375 1.37890625 -124.5859375 1.37890625 -123.54296875 -0.70703125 C-121.53901794 -2.33731304 -119.66354927 -3.67369583 -117.48046875 -5.01953125 C-116.86067139 -5.40834473 -116.24087402 -5.7971582 -115.60229492 -6.19775391 C-79.83954804 -27.98809949 -33.17542263 -25.8685473 0 0 Z " fill="#3264FC" transform="translate(226.54296875,71.70703125)"/>
<path d="M0 0 C7.7184466 0.72815534 7.7184466 0.72815534 11 3 C11.33 3.99 11.66 4.98 12 6 C14.48446012 7.44947185 14.48446012 7.44947185 17.56640625 8.69921875 C18.69111328 9.18583984 19.81582031 9.67246094 20.97460938 10.17382812 C22.75061523 10.9230957 22.75061523 10.9230957 24.5625 11.6875 C25.75037109 12.19861328 26.93824219 12.70972656 28.16210938 13.23632812 C31.10409329 14.50055414 34.0500128 15.7545903 37 17 C37.28875 16.071875 37.5775 15.14375 37.875 14.1875 C39 11 39 11 41 8 C42.4589426 8.47730838 43.91713496 8.95691042 45.375 9.4375 C46.59316406 9.83775391 46.59316406 9.83775391 47.8359375 10.24609375 C50 11 50 11 52 12 C51.42710269 17.70125229 49.26297834 22.31019733 46.875 27.4375 C46.47410156 28.3126123 46.07320313 29.18772461 45.66015625 30.08935547 C44.4478777 32.72990982 43.22533374 35.36548237 42 38 C41.29424244 39.52472644 40.58851139 41.04946515 39.8828125 42.57421875 C35.61172002 51.77655995 35.61172002 51.77655995 34 55 C29.61110675 54.33501617 26.0188515 52.81242323 22 51 C22.56820445 46.59641555 24.28414495 42.96061834 26.16015625 38.98828125 C27.12970285 37.05266586 27.12970285 37.05266586 27 35 C24.03 34.505 24.03 34.505 21 34 C20.61328125 34.92683594 20.2265625 35.85367188 19.828125 36.80859375 C19.30734375 38.00613281 18.7865625 39.20367187 18.25 40.4375 C17.48429687 42.22994141 17.48429687 42.22994141 16.703125 44.05859375 C15 47 15 47 13.30078125 47.85546875 C9.84780206 48.07237916 7.58790209 46.73513509 4.484375 45.25390625 C3.86854553 44.96394272 3.25271606 44.67397919 2.6182251 44.37522888 C0.65674424 43.44857626 -1.29650613 42.50585593 -3.25 41.5625 C-4.58021879 40.93056516 -5.91094292 40.29969289 -7.2421875 39.66992188 C-10.50074096 38.12555783 -13.75211188 36.56669165 -17 35 C-15.46727921 31.39196616 -13.92214204 27.78937079 -12.375 24.1875 C-11.73498047 22.68026367 -11.73498047 22.68026367 -11.08203125 21.14257812 C-3.46557203 3.46557203 -3.46557203 3.46557203 0 0 Z " fill="#F2F5FE" transform="translate(229,219)"/>
<path d="M0 0 C0.185625 1.216875 0.37125 2.43375 0.5625 3.6875 C3.15061293 15.1363051 10.38718703 24.3859554 18 33 C5.8164262 45.79162647 -10.74735491 54.97075294 -28.5546875 55.59375 C-31.43235341 56.07182868 -32.70723273 57.27322967 -35 59 C-35.99 58.67 -36.98 58.34 -38 58 C-36.35 57.01 -34.7 56.02 -33 55 C-33.495 53.515 -33.495 53.515 -34 52 C-37.54518884 53.39759905 -37.54518884 53.39759905 -41 55 C-40.1875 53.0625 -40.1875 53.0625 -39 51 C-37.515 50.505 -37.515 50.505 -36 50 C-36.66 48.68 -37.32 47.36 -38 46 C-39.65 47.32 -41.3 48.64 -43 50 C-43.66 49.67 -44.32 49.34 -45 49 C-43.35 47.02 -41.7 45.04 -40 43 C-40.28875 42.40832031 -40.5775 41.81664062 -40.875 41.20703125 C-41.24625 40.41683594 -41.6175 39.62664062 -42 38.8125 C-42.556875 37.64654297 -42.556875 37.64654297 -43.125 36.45703125 C-44.69970452 32.03520473 -44.69970452 32.03520473 -44 29 C-41.59953468 27.08771221 -39.37906133 25.598649 -36.75 24.0625 C-35.19424175 23.10802355 -33.64096066 22.14950071 -32.08984375 21.1875 C-31.26468262 20.67832031 -30.43952148 20.16914063 -29.58935547 19.64453125 C-25.05950803 16.76756987 -20.69152245 13.66234419 -16.3125 10.5625 C-1.36515849 0 -1.36515849 0 0 0 Z " fill="#FCFCFE" transform="translate(135,214)"/>
<path d="M0 0 C0.845625 0.185625 1.69125 0.37125 2.5625 0.5625 C6.04259209 1.18525314 6.04259209 1.18525314 9.625 0.3125 C13 0 13 0 15.09375 1.6640625 C17.1103756 4.13525535 17.87457831 6.0568083 18.875 9.0625 C22.06992173 16.42938375 27.76838938 19.97964034 34.06982422 24.55126953 C37.34238072 27.00754961 40.41526114 29.68920352 43.5 32.375 C44.614427 33.34132615 45.72900403 34.30747932 46.84375 35.2734375 C47.36324219 35.72428711 47.88273437 36.17513672 48.41796875 36.63964844 C50.91973467 38.79085827 53.45904483 40.89529316 56 43 C60.18423892 39.49102731 64.19588166 35.91939465 68 32 C71.88014936 33.52059907 73.73906562 35.86078531 76.25 39.125 C76.95640625 40.03507812 77.6628125 40.94515625 78.390625 41.8828125 C78.92171875 42.58148438 79.4528125 43.28015625 80 44 C79.04270084 45.12588014 78.08412105 46.2506715 77.125 47.375 C76.59132813 48.00148437 76.05765625 48.62796875 75.5078125 49.2734375 C74.38567993 50.55836651 73.20628025 51.79371975 72 53 C72.03448075 56.19291746 73.16289487 57.16029686 75.44921875 59.41015625 C76.52033131 60.30432587 77.60042161 61.18781034 78.6875 62.0625 C79.55665039 62.77986328 79.55665039 62.77986328 80.44335938 63.51171875 C85.15468532 67.37794111 89.95507836 71.13266286 94.76635742 74.87329102 C99.31375462 78.42049987 103.71558508 82.11421132 108.09448242 85.86621094 C112.0858767 89.26918881 116.17302312 92.52936071 120.3125 95.75 C132.21153514 105.02967874 132.21153514 105.02967874 135 108 C135 108.66 135 109.32 135 110 C132.33333333 108.66666667 129.66666667 107.33333333 127 106 C128.485 109.96 128.485 109.96 130 114 C133.35458155 114.76522801 133.35458155 114.76522801 137 115 C138.82212748 113.88653129 138.82212748 113.88653129 140 112 C140.36146457 109.71669899 140.36146457 109.71669899 140.1875 107.3125 C140.16042969 106.50425781 140.13335937 105.69601563 140.10546875 104.86328125 C140.07066406 104.24839844 140.03585938 103.63351563 140 103 C139.41992188 102.86464844 138.83984375 102.72929687 138.2421875 102.58984375 C132.69819649 101.06204425 129.56655004 99.14377465 125.8984375 94.71875 C125.60195312 94.1515625 125.30546875 93.584375 125 93 C125.495 91.515 125.495 91.515 126 90 C130.99589131 88.12101433 137.35654969 87.91284723 142.2890625 89.94140625 C147.3556751 92.96809055 150.82526118 96.35683766 153.25 101.8125 C154.81271791 108.45405114 154.56782196 113.24351986 151.26953125 119.17578125 C148.25879047 123.50198415 144.14858169 126.71285458 139 128 C132.55598315 128.82644237 128.0197254 128.24219257 122.6875 124.42578125 C118.35792492 120.76769119 115.33257413 116.67217272 114.8125 110.9296875 C114.67626325 105.90595743 115.51782058 101.8347281 117 97 C109.62693445 90.57938213 102.19397807 84.288542 94.47094727 78.29223633 C89.68490725 74.56577737 84.98878272 70.7380835 80.3125 66.875 C79.58732178 66.27606934 78.86214355 65.67713867 78.11499023 65.06005859 C76.07583965 63.37436078 74.03764639 61.6875156 72 60 C65.76708727 54.83898946 59.47164052 49.78362759 53.04370117 44.86791992 C49.61637468 42.24666757 46.20514622 39.60678796 42.8137207 36.93920898 C41.64517402 36.0205648 40.47442769 35.10471184 39.30151367 34.19165039 C36.30901418 31.85514319 33.37221036 29.47877424 30.49609375 27 C23.51612677 21.08196914 18.08910819 17.70662921 8.9609375 15.87890625 C5.565822 14.87112131 4.12899916 13.80593821 2 11 C1.875 7.5 1.875 7.5 2 4 C1.11935073 1.64630193 1.11935073 1.64630193 0 0 Z " fill="#3264FB" transform="translate(30,43)"/>
<path d="M0 0 C5.84056807 3.81424853 14.43080928 9.54242783 16.6875 16.3125 C16.13320312 16.67601563 15.57890625 17.03953125 15.0078125 17.4140625 C10.34589177 20.63979491 10.34589177 20.63979491 7.1875 25.25 C6.28247225 30.79329495 6.61549605 35.81847976 7.6875 41.3125 C7.0275 41.3125 6.3675 41.3125 5.6875 41.3125 C5.50316406 40.77882812 5.31882812 40.24515625 5.12890625 39.6953125 C1.71649879 30.9292169 -4.79167407 22.57291296 -13.3125 18.3125 C-25.25175207 13.55012051 -36.00855991 12.41032815 -48.0703125 17.2421875 C-50.51026224 18.3416748 -50.51026224 18.3416748 -53.3125 20.3125 C-56.61975941 19.99623423 -58.15668203 18.80216577 -60.328125 16.37109375 C-60.85664063 15.78779297 -61.38515625 15.20449219 -61.9296875 14.60351562 C-62.46851563 13.99185547 -63.00734375 13.38019531 -63.5625 12.75 C-64.11679688 12.13447266 -64.67109375 11.51894531 -65.2421875 10.88476562 C-66.60656545 9.36748325 -67.96055855 7.84087406 -69.3125 6.3125 C-68.62269495 3.99931917 -67.77047554 2.6216587 -65.76025391 1.26464844 C-63.74089188 0.1762201 -61.69766852 -0.82943089 -59.625 -1.8125 C-58.92955078 -2.15925781 -58.23410156 -2.50601563 -57.51757812 -2.86328125 C-39.37224992 -11.70722273 -17.46729068 -9.57971723 0 0 Z " fill="#3264FC" transform="translate(196.3125,97.6875)"/>
<path d="M0 0 C2.62901288 1.52206009 4.84365964 2.84365964 7 5 C6.68909049 9.09018733 5.10941256 11.67378667 2.8125 15 C-11.30414494 36.60888068 -15.54567582 63.10301061 -10.875 88.4375 C-5.38190372 113.29695433 8.10101641 135.18072072 29 150 C26.7541596 152.50250788 24.84550472 154.60760289 21.76953125 156.03515625 C17.2463967 155.97773987 14.98894367 153.05385351 11.875 150 C11.21556396 149.36497559 10.55612793 148.72995117 9.87670898 148.07568359 C-11.42811176 127.02144701 -23.14050267 98.46909027 -23.375 68.5625 C-23.12911261 43.00876886 -15.09915389 20.5938164 0 0 Z " fill="#000168" transform="translate(77,83)"/>
<path d="M0 0 C4.02020729 2.93674717 6.91943911 6.19917313 9.75 10.25 C10.17829102 10.8584375 10.60658203 11.466875 11.04785156 12.09375 C22.0529435 28.03048358 34.38784461 47.90489212 32 68 C30.5625 71.6875 30.5625 71.6875 28 74 C23.88567083 75.21502593 20.44734471 74.61437367 16.54296875 72.95703125 C9.12588695 68.78711282 2.98590136 62.98590136 -3 57 C-3.79501002 52.45926967 -4.13902414 47.80695048 -1.62109375 43.8125 C-1.06550781 43.173125 -0.50992188 42.53375 0.0625 41.875 C2.52506287 39.00298487 3.48129391 37.38876217 3.25 33.5625 C2.57512951 29.88540188 1.1248728 27.50176458 -1.0625 24.5 C-3.84574445 20.63958642 -4.74095968 18.09216601 -4.40625 13.34765625 C-2.53521127 2.53521127 -2.53521127 2.53521127 0 0 Z " fill="#FBFCFD" transform="translate(249,142)"/>
<path d="M0 0 C1.52947266 -0.02320313 1.52947266 -0.02320313 3.08984375 -0.046875 C9.21191859 -0.01503066 12.85046931 0.419494 17.5 4.5 C22.25521159 9.76928852 22.85942628 13.86026447 22.77734375 20.7734375 C22.25690786 25.88983538 19.75640959 28.43554188 15.96875 31.64453125 C11.35798958 34.11087269 7.75477434 33.95086466 2.625 33.75 C1.30628906 33.72292969 1.30628906 33.72292969 -0.0390625 33.6953125 C-2.1931832 33.64848379 -4.34673774 33.57674994 -6.5 33.5 C-6.76554687 34.14453125 -7.03109375 34.7890625 -7.3046875 35.453125 C-7.69914062 36.12859375 -8.09359375 36.8040625 -8.5 37.5 C-11.625 38.25 -11.625 38.25 -14.5 38.5 C-14.396875 37.2625 -14.29375 36.025 -14.1875 34.75 C-14.11547739 32.55096399 -14.11547739 32.55096399 -14.5 30.5 C-16.82321702 28.25808599 -16.82321702 28.25808599 -19.5 26.5 C-22.1092953 21.29928129 -22.17046296 16.19893517 -21.5 10.5 C-16.84687966 0.65686082 -9.89917427 -0.15017711 0 0 Z " fill="#3466FD" transform="translate(310.5,135.5)"/>
<path d="M0 0 C2.58593684 1.99486556 4.99133853 3.99114539 7.27734375 6.328125 C10.14826272 9.14549742 13.18333801 11.62735223 16.375 14.0625 C16.91382813 14.48337891 17.45265625 14.90425781 18.0078125 15.33789062 C23.57758017 19.61467651 29.19978906 23.00969436 36 25 C35.53863855 30.13387312 32.97533623 33.35311882 29.9375 37.3125 C29.48439453 37.95767578 29.03128906 38.60285156 28.56445312 39.26757812 C26.64968126 41.77028824 25.15352269 43.63925717 22.08813477 44.59790039 C17.30639612 44.93850634 14.41439434 43.41357357 10.82446289 40.39233398 C10.24301514 39.87098877 9.66156738 39.34964355 9.0625 38.8125 C7.77299627 37.71360265 6.48123417 36.61735117 5.1875 35.5234375 C4.51460937 34.94819336 3.84171875 34.37294922 3.1484375 33.78027344 C-1.31537876 30.08139297 -6.03065675 26.68945499 -10.71655273 23.27856445 C-11.40692627 22.76253662 -12.0972998 22.24650879 -12.80859375 21.71484375 C-13.42532959 21.26230225 -14.04206543 20.80976074 -14.67749023 20.34350586 C-16 19 -16 19 -16 16 C-14.27734375 14.4921875 -14.27734375 14.4921875 -11.9375 12.875 C-6.98636589 9.21648793 -3.5298544 5.00535624 0 0 Z " fill="#3264FD" transform="translate(157,264)"/>
<path d="M0 0 C0.845625 0.185625 1.69125 0.37125 2.5625 0.5625 C6.04259209 1.18525314 6.04259209 1.18525314 9.625 0.3125 C13 0 13 0 15.09375 1.6640625 C17.1103756 4.13525535 17.87457831 6.0568083 18.875 9.0625 C22.06992173 16.42938375 27.76838938 19.97964034 34.06982422 24.55126953 C37.34238072 27.00754961 40.41526114 29.68920352 43.5 32.375 C44.614427 33.34132615 45.72900403 34.30747932 46.84375 35.2734375 C47.36324219 35.72428711 47.88273437 36.17513672 48.41796875 36.63964844 C50.91973467 38.79085827 53.45904483 40.89529316 56 43 C60.18423892 39.49102731 64.19588166 35.91939465 68 32 C71.88014936 33.52059907 73.73906562 35.86078531 76.25 39.125 C76.95640625 40.03507812 77.6628125 40.94515625 78.390625 41.8828125 C78.92171875 42.58148438 79.4528125 43.28015625 80 44 C79.04270084 45.12588014 78.08412105 46.2506715 77.125 47.375 C76.59132813 48.00148437 76.05765625 48.62796875 75.5078125 49.2734375 C74.38567993 50.55836651 73.20628025 51.79371975 72 53 C72.03448075 56.19291746 73.16289487 57.16029686 75.44921875 59.41015625 C76.52033131 60.30432587 77.60042161 61.18781034 78.6875 62.0625 C79.55665039 62.77986328 79.55665039 62.77986328 80.44335938 63.51171875 C85.15468532 67.37794111 89.95507836 71.13266286 94.76635742 74.87329102 C99.31375462 78.42049987 103.71558508 82.11421132 108.09448242 85.86621094 C112.0858767 89.26918881 116.17302312 92.52936071 120.3125 95.75 C132.21153514 105.02967874 132.21153514 105.02967874 135 108 C135 108.66 135 109.32 135 110 C131.63743102 108.49609874 129.06970558 106.54747098 126.25 104.1875 C125.27933594 103.38183594 124.30867188 102.57617188 123.30859375 101.74609375 C122.77862793 101.30507324 122.24866211 100.86405273 121.70263672 100.40966797 C118.59120711 97.83361484 115.45000073 95.29417666 112.3125 92.75 C110.93353192 91.63028447 109.55462643 90.51049187 108.17578125 89.390625 C107.1386499 88.54854492 107.1386499 88.54854492 106.08056641 87.68945312 C102.05696625 84.42222558 98.03470302 81.15335239 94.01220703 77.88476562 C90.61667023 75.12573597 87.220776 72.36714835 83.82421875 69.609375 C83.1381958 69.0522583 82.45217285 68.4951416 81.74536133 67.92114258 C80.38205844 66.81403518 79.0186162 65.70709936 77.6550293 64.6003418 C73.86153126 61.5195019 70.08284748 58.4216706 66.3125 55.3125 C61.95597422 51.74274977 57.51741242 48.28905068 53.04394531 44.86816406 C49.6165857 42.24676791 46.20523588 39.60685849 42.8137207 36.93920898 C41.64517402 36.0205648 40.47442769 35.10471184 39.30151367 34.19165039 C36.30901418 31.85514319 33.37221036 29.47877424 30.49609375 27 C23.51612677 21.08196914 18.08910819 17.70662921 8.9609375 15.87890625 C5.565822 14.87112131 4.12899916 13.80593821 2 11 C1.875 7.5 1.875 7.5 2 4 C1.11935073 1.64630193 1.11935073 1.64630193 0 0 Z " fill="#FBFBFD" transform="translate(30,43)"/>
<path d="M0 0 C0.99 0.33 1.98 0.66 3 1 C2.76667969 1.51691406 2.53335938 2.03382813 2.29296875 2.56640625 C1.8503874 6.242782 3.57641305 8.81796253 5.3125 11.9375 C5.67061768 12.59339111 6.02873535 13.24928223 6.39770508 13.92504883 C10.95464684 22.02227134 16.8893563 32.23699679 25 37 C29.24808768 35.91850075 32.84374373 34.12220604 36.6328125 31.953125 C37.68726563 31.355 38.74171875 30.756875 39.828125 30.140625 C41.46007812 29.20476562 41.46007812 29.20476562 43.125 28.25 C51.30303465 23.57683734 59.52978485 19.12373253 68 15 C68.495 15.99 68.495 15.99 69 17 C67.49153952 21.1046938 65.59058516 25.04288946 63.7409668 29.00390625 C62.81921034 30.98557356 61.91978533 32.97636138 61.02148438 34.96875 C60.43883828 36.22978587 59.85489539 37.49022353 59.26953125 38.75 C58.47446167 40.47476563 58.47446167 40.47476563 57.66333008 42.234375 C55.93144071 45.11399379 55.1329409 45.97949057 52 47 C42.2623109 48.95963433 31.9123377 49.86415252 22 49 C21.01 48.34 20.02 47.68 19 47 C19.33 46.01 19.66 45.02 20 44 C22.5625 42.8125 22.5625 42.8125 25 42 C24.195625 41.236875 23.39125 40.47375 22.5625 39.6875 C20 37 20 37 19 34 C18.11441406 33.57654297 18.11441406 33.57654297 17.2109375 33.14453125 C9.0088176 28.89855752 2.65796739 15.2866042 0 7 C-0.15234375 3.11328125 -0.15234375 3.11328125 0 0 Z " fill="#3364F9" transform="translate(135,213)"/>
<path d="M0 0 C7.71484375 2.734375 7.71484375 2.734375 10 4 C11.3198094 6.77151981 11.02113935 7.94033701 9.98706055 10.85888672 C9.45894775 11.95475098 8.93083496 13.05061523 8.38671875 14.1796875 C8.10135757 14.7810704 7.8159964 15.38245331 7.52198792 16.00205994 C6.58788608 17.96504125 5.63788331 19.91985688 4.6875 21.875 C3.71679335 23.90219568 2.7498724 25.93116955 1.78305054 27.96022034 C1.13214029 29.32534614 0.47981067 30.68979605 -0.17391968 32.05357361 C-3.58281952 39.17588282 -6.805371 46.38033902 -9.9777832 53.61083984 C-10.3512085 54.44695801 -10.72463379 55.28307617 -11.109375 56.14453125 C-11.42874023 56.87003174 -11.74810547 57.59553223 -12.07714844 58.34301758 C-13 60 -13 60 -15 61 C-17.3828125 60.00390625 -17.3828125 60.00390625 -20.125 58.5625 C-21.03507812 58.08941406 -21.94515625 57.61632812 -22.8828125 57.12890625 C-23.58148438 56.75636719 -24.28015625 56.38382812 -25 56 C-24.34850277 50.8678371 -22.09798648 46.52314002 -19.921875 41.89453125 C-19.30919769 40.5756617 -19.30919769 40.5756617 -18.68414307 39.23014832 C-17.81913314 37.37059939 -16.95153783 35.51225123 -16.08154297 33.6550293 C-14.76388009 30.84213071 -13.45347406 28.02594969 -12.14453125 25.20898438 C-11.29990462 23.3956351 -10.45486536 21.58247796 -9.609375 19.76953125 C-9.22271667 18.94000443 -8.83605835 18.1104776 -8.43768311 17.2558136 C-5.71929006 11.45556033 -2.88864917 5.71726402 0 0 Z " fill="#3668FE" transform="translate(295,222)"/>
<path d="M0 0 C4.75 0.875 4.75 0.875 7 2 C5.29956986 7.96150801 2.43785444 13.25813069 -0.375 18.75 C-6.2744643 30.41698321 -11.79512718 42.22827508 -17.22460938 54.11962891 C-20.75301952 61.83971619 -24.31743336 69.5433199 -27.875 77.25 C-28.25846588 78.08092163 -28.64193176 78.91184326 -29.03701782 79.76794434 C-33.98354572 90.48561674 -38.93706612 101.20000773 -43.92169189 111.90002441 C-44.78112714 113.74514562 -45.63936561 115.59082412 -46.49755859 117.43652344 C-49.56520235 124.01045092 -52.72133028 130.52883 -56 137 C-69.66621788 130.9484573 -83.15435073 124.60194993 -96.5625 118 C-100.000437 116.31073325 -103.43934332 114.62345352 -106.87890625 112.9375 C-107.71032135 112.52975342 -108.54173645 112.12200684 -109.39834595 111.7019043 C-118.22531916 107.38293534 -127.10796364 103.18300183 -136 99 C-132.00341767 97.66780589 -130.00030048 99.11377173 -126.4296875 100.875 C-125.76831787 101.19112747 -125.10694824 101.50725494 -124.42553711 101.83296204 C-122.99014726 102.52014972 -121.55685277 103.21172729 -120.12542725 103.90713501 C-116.30154093 105.76411194 -112.46199428 107.58827508 -108.625 109.41796875 C-107.43872513 109.98538033 -107.43872513 109.98538033 -106.22848511 110.56425476 C-98.53075076 114.2408362 -90.78572272 117.80972762 -83.019104 121.33813477 C-81.6016207 121.98229496 -80.18473887 122.62778052 -78.76849365 123.2746582 C-71.9224179 126.40161932 -65.10376152 129.49651153 -58 132 C-51.8018427 120.91758049 -46.32278898 109.57161904 -41.25 97.9375 C-40.95576141 97.26290741 -40.66152283 96.58831482 -40.35836792 95.89328003 C-36.95130386 88.05642013 -33.64482791 80.18323939 -30.44921875 72.2578125 C-29.27923017 69.35913851 -28.10892082 66.46059553 -26.9375 63.5625 C-26.65049225 62.85187408 -26.3634845 62.14124817 -26.06777954 61.40908813 C-21.71699687 50.68268896 -16.89787397 40.38639589 -11.34936523 30.21313477 C-6.06297008 20.52012784 -1.6294973 10.99302653 0 0 Z " fill="#0B0B6C" transform="translate(335,186)"/>
<path d="M0 0 C1.4589426 0.47730838 2.91713496 0.95691042 4.375 1.4375 C5.18710937 1.70433594 5.99921875 1.97117188 6.8359375 2.24609375 C9 3 9 3 11 4 C10.42710269 9.70125229 8.26297834 14.31019733 5.875 19.4375 C5.47410156 20.3126123 5.07320313 21.18772461 4.66015625 22.08935547 C3.4478777 24.72990982 2.22533374 27.36548237 1 30 C0.29424244 31.52472644 -0.41148861 33.04946515 -1.1171875 34.57421875 C-5.38827998 43.77655995 -5.38827998 43.77655995 -7 47 C-11.38889325 46.33501617 -14.9811485 44.81242323 -19 43 C-18.36248532 38.40458166 -16.51717843 34.55941385 -14.5 30.4375 C-10.8245183 22.7961659 -7.31784686 15.08993325 -3.8828125 7.33764648 C-3.52058594 6.52497314 -3.15835937 5.7122998 -2.78515625 4.875 C-2.46426025 4.15054688 -2.14336426 3.42609375 -1.81274414 2.6796875 C-1 1 -1 1 0 0 Z " fill="#3668FD" transform="translate(270,227)"/>
<path d="M0 0 C0.495 0.99 0.495 0.99 1 2 C2.97888961 2.72693904 4.97954558 3.39816251 7 4 C4.54149092 11.98811257 1.1103684 19.23452028 -2.59179688 26.7109375 C-3.02943359 27.608125 -3.46707031 28.5053125 -3.91796875 29.4296875 C-4.31781982 30.23647949 -4.7176709 31.04327148 -5.12963867 31.87451172 C-6.18947369 34.07991132 -6.18947369 34.07991132 -6 37 C-1.545 38.98 -1.545 38.98 3 41 C2.505 41.99 2.505 41.99 2 43 C-6.21480157 40.52393903 -13.82610753 36.96582376 -21.5625 33.3125 C-22.87022983 32.6994155 -24.17817108 32.08678178 -25.48632812 31.47460938 C-28.66000484 29.98825841 -31.83078263 28.49584 -35 27 C-35 26.34 -35 25.68 -35 25 C-34.34 25 -33.68 25 -33 25 C-32.81824219 24.40832031 -32.63648438 23.81664062 -32.44921875 23.20703125 C-31.04332943 18.787492 -29.62472819 14.87459875 -27 11 C-24.03 11.495 -24.03 11.495 -21 12 C-19.63579994 16.09260018 -21.2335485 18.47012659 -22.9375 22.1875 C-23.22818359 22.84169922 -23.51886719 23.49589844 -23.81835938 24.16992188 C-24.53695343 25.78381344 -25.2673588 27.39243655 -26 29 C-25.25363281 29.13277344 -24.50726563 29.26554687 -23.73828125 29.40234375 C-20.21393551 30.17156614 -17.28397321 31.51899247 -14 33 C-13.62230469 31.77410156 -13.24460937 30.54820312 -12.85546875 29.28515625 C-10.80259971 23.12654914 -8.0569921 17.31248374 -5.3125 11.4375 C-4.80138672 10.33341797 -4.29027344 9.22933594 -3.76367188 8.09179688 C-2.5133598 5.39252502 -1.25872684 2.69535545 0 0 Z " fill="#F4F7FE" transform="translate(277,241)"/>
<path d="M0 0 C4.07279689 0.38422612 7.46574118 0.87944471 11 3 C10.01795377 9.31421555 7.12716876 14.92946535 4.53515625 20.71240234 C3.62384763 22.75257985 2.72966792 24.79972843 1.8359375 26.84765625 C1.25884444 28.14368916 0.68075395 29.43927849 0.1015625 30.734375 C-0.42099121 31.91225586 -0.94354492 33.09013672 -1.48193359 34.30371094 C-3 37 -3 37 -6 38 C-8.48046875 37.00390625 -8.48046875 37.00390625 -11.1875 35.5625 C-12.08855469 35.08941406 -12.98960937 34.61632812 -13.91796875 34.12890625 C-14.60503906 33.75636719 -15.29210937 33.38382813 -16 33 C-14.44535431 29.35076908 -12.87984258 25.70629359 -11.3125 22.0625 C-10.65991211 20.53012695 -10.65991211 20.53012695 -9.99414062 18.96679688 C-3.18903617 3.18903617 -3.18903617 3.18903617 0 0 Z " fill="#3869FF" transform="translate(229,219)"/>
<path d="M0 0 C6.6953125 -0.25 6.6953125 -0.25 9.4375 2 C10.2109375 2.99 10.2109375 2.99 11 4 C11.66 3.01 12.32 2.02 13 1 C13.3403125 2.485 13.3403125 2.485 13.6875 4 C14.53453707 7.056699 15.75688177 9.2761622 17.5625 11.875 C20.26867534 16.07200247 21.78448073 19.9581688 21 25 C19.67203141 27.30015744 18.17227215 29.19528687 16.4375 31.203125 C14.69219143 33.38476072 14.17355316 35.22314943 14 38 C13.60941406 37.12601563 13.60941406 37.12601563 13.2109375 36.234375 C11.92411249 33.85997531 10.47747199 32.20763416 8.625 30.25 C2.40385248 23.31601266 -0.17516384 16.59426672 -0.0625 7.3125 C-0.05798828 6.61060547 -0.05347656 5.90871094 -0.04882812 5.18554688 C-0.03706927 3.45699462 -0.01913454 1.72848635 0 0 Z " fill="#3667FC" transform="translate(232,155)"/>
<path d="M0 0 C2.61047801 1.305239 2.68066423 2.35826574 3.625 5.0625 C3.88539062 5.79597656 4.14578125 6.52945313 4.4140625 7.28515625 C4.60742188 7.85105469 4.80078125 8.41695313 5 9 C3.35 10.98 1.7 12.96 0 15 C1.98 13.68 3.96 12.36 6 11 C8 13 8 13 8 16 C6.5 17.6875 6.5 17.6875 5 19 C6.65 18.34 8.3 17.68 10 17 C10.66 18.32 11.32 19.64 12 21 C9.525 22.485 9.525 22.485 7 24 C9.97 24.33 12.94 24.66 16 25 C15.01 25.99 14.02 26.98 13 28 C13.66 28 14.32 28 15 28 C18.7090679 28.29282115 19.75705244 28.73078784 22.3125 31.5625 C22.869375 32.366875 23.42625 33.17125 24 34 C22.12922332 34.53580497 20.2531083 35.05298887 18.375 35.5625 C17.33085938 35.85253906 16.28671875 36.14257812 15.2109375 36.44140625 C11.68584797 37.05465175 9.42640903 37.02371566 6 36 C3.76953125 34.109375 3.76953125 34.109375 1.8125 31.75 C1.15894531 30.98171875 0.50539063 30.2134375 -0.16796875 29.421875 C-5 23.03411514 -5 23.03411514 -5 20 C-5.66 19.67 -6.32 19.34 -7 19 C-8.07909162 15.76272513 -8.50412864 14.29502637 -8 11 C-5.69830707 7.02292514 -2.95191586 3.51387797 0 0 Z " fill="#335EED" transform="translate(91,248)"/>
<path d="M0 0 C1.4589426 0.47730838 2.91713496 0.95691042 4.375 1.4375 C5.18710938 1.70433594 5.99921875 1.97117188 6.8359375 2.24609375 C9 3 9 3 11 4 C10.12951718 10.33843898 7.80942938 15.52475031 5.1875 21.3125 C4.74857422 22.32634766 4.30964844 23.34019531 3.85742188 24.38476562 C3.42365234 25.34705078 2.98988281 26.30933594 2.54296875 27.30078125 C2.15133545 28.17903564 1.75970215 29.05729004 1.35620117 29.9621582 C0 32 0 32 -2.01147461 32.84228516 C-4.7148679 33.05669793 -6.32616596 32.2387724 -8.75 31.0625 C-9.54921875 30.68222656 -10.3484375 30.30195313 -11.171875 29.91015625 C-11.77515625 29.60980469 -12.3784375 29.30945313 -13 29 C-11.20656316 22.98430044 -8.5463131 17.38113311 -5.9375 11.6875 C-5.47794922 10.67365234 -5.01839844 9.65980469 -4.54492188 8.61523438 C-1.13127309 1.13127309 -1.13127309 1.13127309 0 0 Z " fill="#3869FF" transform="translate(245,232)"/>
<path d="M0 0 C-2.41965318 8.00346821 -2.41965318 8.00346821 -5 11 C-7.93733628 12.12363799 -10.893935 12.57192053 -14 13 C-14.680625 13.11085938 -15.36125 13.22171875 -16.0625 13.3359375 C-35.01232394 15.99178404 -35.01232394 15.99178404 -41 12 C-39.67724489 8.03173466 -37.86709228 7.16470551 -34.36669922 5.08349609 C-30.36824848 3.25296954 -26.40908892 3.04091937 -22.0625 2.8125 C-16.18871516 2.42151356 -10.62885482 1.84614096 -4.90795898 0.40893555 C-3 0 -3 0 0 0 Z " fill="#010168" transform="translate(195,248)"/>
<path d="M0 0 C1.84904262 0.50848672 3.68072387 1.08107462 5.5 1.6875 C6.510625 1.666875 7.52125 1.64625 8.5625 1.625 C11.5 1.6875 11.5 1.6875 13.5 3.6875 C14.27218041 10.30618923 14.27218041 10.30618923 12.51953125 13.44140625 C10.19609674 16.29386893 7.55471901 18.65102066 4.5 20.6875 C-0.33850289 18.59432158 -3.07131147 15.31694188 -5.5 10.6875 C-6.11496677 7.59298724 -6.32039824 4.75286396 -5.5 1.6875 C-2.5 -0.3125 -2.5 -0.3125 0 0 Z " fill="#000168" transform="translate(281.5,103.3125)"/>
<path d="M0 0 C3.88014936 1.52059907 5.73906562 3.86078531 8.25 7.125 C8.95640625 8.03507812 9.6628125 8.94515625 10.390625 9.8828125 C11.18726563 10.93082031 11.18726563 10.93082031 12 12 C11.61328125 12.44730469 11.2265625 12.89460938 10.828125 13.35546875 C7.81609925 16.8521026 4.85678969 20.37407463 2 24 C1.39671875 23.45730469 0.7934375 22.91460937 0.171875 22.35546875 C-0.62734375 21.64003906 -1.4265625 20.92460938 -2.25 20.1875 C-3.03890625 19.47980469 -3.8278125 18.77210937 -4.640625 18.04296875 C-6.7016833 16.25831065 -8.79605523 14.60240938 -11 13 C-9.46356148 9.31930113 -7.21849055 7.01224796 -4.375 4.25 C-3.55773437 3.45078125 -2.74046875 2.6515625 -1.8984375 1.828125 C-0.95871094 0.92320313 -0.95871094 0.92320313 0 0 Z " fill="#3365FC" transform="translate(98,75)"/>
<path d="M0 0 C0.66 0 1.32 0 2 0 C2 2.64 2 5.28 2 8 C3.65 8.66 5.3 9.32 7 10 C7 11.32 7 12.64 7 14 C6.071875 14.20625 5.14375 14.4125 4.1875 14.625 C0.73995905 15.74446192 0.73995905 15.74446192 -0.875 19.125 C-1.24625 20.07375 -1.6175 21.0225 -2 22 C-3.37562854 20.71034824 -4.70766393 19.37310707 -6 18 C-6 17.34 -6 16.68 -6 16 C-8.64 15.67 -11.28 15.34 -14 15 C-13.690625 14.4225 -13.38125 13.845 -13.0625 13.25 C-10.93813708 8.75134912 -10.9956238 5.91028366 -12 1 C-10.14375 1.5878125 -10.14375 1.5878125 -8.25 2.1875 C-4.81761938 3.13169507 -4.81761938 3.13169507 -1.625 1.625 C-1.08875 1.08875 -0.5525 0.5525 0 0 Z " fill="#2C58EC" transform="translate(329,47)"/>
<path d="M0 0 C4.43906935 1.4416794 7.50309917 3.88780695 10.9375 6.9375 C15.45284927 10.85394015 20.02604275 14.65028127 24.75 18.3125 C32.32576562 24.20393038 39.71439884 30.31478045 47.10644531 36.43408203 C52.70477599 41.06374848 58.33609625 45.65320072 63.98046875 50.2265625 C64.68550537 50.79818115 65.39054199 51.3697998 66.11694336 51.95874023 C67.49592487 53.07635133 68.87559798 54.19310986 70.25610352 55.30883789 C72.1767596 56.86535203 74.08968727 58.43081455 76 60 C76.67353516 60.54736816 77.34707031 61.09473633 78.04101562 61.65869141 C79.00297852 62.45605713 79.00297852 62.45605713 79.984375 63.26953125 C80.56413086 63.74624268 81.14388672 64.2229541 81.74121094 64.71411133 C83 66 83 66 83 68 C79.63743102 66.49609874 77.06970558 64.54747098 74.25 62.1875 C73.27933594 61.38183594 72.30867188 60.57617188 71.30859375 59.74609375 C70.77862793 59.30507324 70.24866211 58.86405273 69.70263672 58.40966797 C66.59120711 55.83361484 63.45000073 53.29417666 60.3125 50.75 C58.93353192 49.63028447 57.55462643 48.51049187 56.17578125 47.390625 C55.1386499 46.54854492 55.1386499 46.54854492 54.08056641 45.68945312 C50.05696625 42.42222558 46.03470302 39.15335239 42.01220703 35.88476562 C38.61667023 33.12573597 35.220776 30.36714835 31.82421875 27.609375 C30.44529919 26.48959973 29.06639279 25.36980824 27.6875 24.25 C27.01968506 23.70778809 26.35187012 23.16557617 25.66381836 22.60693359 C20.92340307 18.75604433 16.20075649 14.88420193 11.484375 11.00390625 C8.24467121 8.39074895 4.92635031 5.88764655 1.58203125 3.41015625 C1.05996094 2.94480469 0.53789063 2.47945313 0 2 C0 1.34 0 0.68 0 0 Z " fill="#E7EBF9" transform="translate(82,85)"/>
<path d="M0 0 C1.45880109 0.14107747 2.91703551 0.28802415 4.375 0.4375 C5.59316406 0.55931641 5.59316406 0.55931641 6.8359375 0.68359375 C9 1 9 1 11 2 C12.53668865 2.22467831 14.07968054 2.40796805 15.625 2.5625 C16.44226563 2.64628906 17.25953125 2.73007812 18.1015625 2.81640625 C18.72804688 2.87699219 19.35453125 2.93757813 20 3 C19.01 3.99 18.02 4.98 17 6 C17.66 6 18.32 6 19 6 C22.7090679 6.29282115 23.75705244 6.73078784 26.3125 9.5625 C26.869375 10.366875 27.42625 11.17125 28 12 C26.12922332 12.53580497 24.2531083 13.05298887 22.375 13.5625 C21.33085938 13.85253906 20.28671875 14.14257812 19.2109375 14.44140625 C15.68498273 15.05480227 13.42756801 15.02266675 10 14 C7.734375 12.109375 7.734375 12.109375 5.75 9.75 C5.08484375 8.98171875 4.4196875 8.2134375 3.734375 7.421875 C2.00717771 5.01002293 0.97030615 2.79210546 0 0 Z " fill="#01036B" transform="translate(87,270)"/>
<path d="M0 0 C4.9240432 4.7652031 9.44259642 9.88657333 14 15 C12.95125002 17.62187494 12.35068687 18.79371361 9.875 20.25 C9.25625 20.4975 8.6375 20.745 8 21 C7.43152344 20.48050781 6.86304688 19.96101563 6.27734375 19.42578125 C1.69475654 15.28691701 -2.89564164 11.47530782 -8 8 C-5.33333333 5.33333333 -2.66666667 2.66666667 0 0 Z " fill="#3466FC" transform="translate(124,104)"/>
<path d="M0 0 C1.4589426 0.47730838 2.91713496 0.95691042 4.375 1.4375 C5.18710937 1.70433594 5.99921875 1.97117188 6.8359375 2.24609375 C9 3 9 3 11 4 C10.46515599 9.34844008 8.53309233 13.35796103 6 18 C1.94718288 16.77472971 -1.44360764 15.30119506 -5 13 C-4.48474397 7.71862571 -2.74522883 4.42778844 0 0 Z " fill="#06076B" transform="translate(270,227)"/>
<path d="M0 0 C1.65260442 0.56386503 3.29701637 1.15178717 4.9375 1.75 C5.85402344 2.07484375 6.77054687 2.3996875 7.71484375 2.734375 C10 4 10 4 10.96875 5.8125 C11.03296306 10.30741393 8.07388782 14.15572013 6 18 C2.37 16.35 -1.26 14.7 -5 13 C-4.22998773 9.14993864 -3.6738858 6.99223427 -1.9375 3.6875 C-1.57527344 2.99011719 -1.21304687 2.29273438 -0.83984375 1.57421875 C-0.56269531 1.05472656 -0.28554688 0.53523437 0 0 Z " fill="#06076A" transform="translate(295,222)"/>
<path d="M0 0 C1.32 1.32 2.64 2.64 4 4 C3.46890625 4.27972656 2.9378125 4.55945313 2.390625 4.84765625 C-4.30388663 8.64691376 -7.05535123 12.49673876 -9.25 19.9375 C-9.4975 20.948125 -9.745 21.95875 -10 23 C-13 21.1875 -13 21.1875 -16 19 C-16 18.01 -16 17.02 -16 16 C-14.27734375 14.4921875 -14.27734375 14.4921875 -11.9375 12.875 C-6.98636589 9.21648793 -3.5298544 5.00535624 0 0 Z " fill="#03066E" transform="translate(157,264)"/>
<path d="M0 0 C0.66 0.33 1.32 0.66 2 1 C3.9336187 6.8008561 3.99359019 12.8981746 1.375 18.4375 C-2.34126035 22.44714932 -5.65663321 25.18385611 -11.234375 25.4609375 C-12.73983526 25.45305551 -14.24531797 25.42403766 -15.75 25.375 C-16.51699219 25.37371094 -17.28398437 25.37242187 -18.07421875 25.37109375 C-23.71817801 25.28182199 -23.71817801 25.28182199 -26 23 C-24.83082031 22.96261719 -23.66164063 22.92523438 -22.45703125 22.88671875 C-20.90882325 22.8210372 -19.36064758 22.75459061 -17.8125 22.6875 C-16.65911133 22.65366211 -16.65911133 22.65366211 -15.48242188 22.61914062 C-9.9136433 22.35623692 -6.5535105 21.18872329 -2.25 17.5 C0.5543641 14.13476307 0.10368293 10.47197569 0.0625 6.3125 C0.05347656 5.13300781 0.04445313 3.95351562 0.03515625 2.73828125 C0.02355469 1.83464844 0.01195312 0.93101562 0 0 Z " fill="#060C77" transform="translate(330,144)"/>
<path d="M0 0 C4.54071365 1.46583335 7.76266969 4.04531733 11.3125 7.125 C12.13717773 7.82689453 12.13717773 7.82689453 12.97851562 8.54296875 C14.32396409 9.68952483 15.662679 10.84397451 17 12 C14.08304538 13.45847731 12.25790887 12.5670025 9.125 11.8125 C7.55105469 11.45091797 7.55105469 11.45091797 5.9453125 11.08203125 C2.69627129 9.88841797 1.14404206 8.69156593 -1 6 C-1.3125 3.3125 -1.3125 3.3125 -1 1 C-0.67 0.67 -0.34 0.34 0 0 Z " fill="#050569" transform="translate(33,48)"/>
<path d="M0 0 C4.6527747 1.62847114 5.05488689 2.96234917 7.25 7.25 C8.78125 10.52734375 8.78125 10.52734375 9.75 13.3125 C9.42 13.9725 9.09 14.6325 8.75 15.3125 C6.59754453 13.54922285 4.45314214 11.77751751 2.3125 10 C1.70083984 9.50048828 1.08917969 9.00097656 0.45898438 8.48632812 C-4.13671875 4.65234375 -4.13671875 4.65234375 -5.25 1.3125 C-3.25 0.3125 -3.25 0.3125 0 0 Z " fill="#3667FF" transform="translate(41.25,42.6875)"/>
<path d="M0 0 C4.84227091 0.44657471 7.00540883 2.48750955 10.4375 5.8125 C14.12371738 9.36238502 17.69372326 12.27924489 22 15 C21.01 15.66 20.02 16.32 19 17 C16.77061395 15.25027888 14.54148496 13.50023195 12.3125 11.75 C11.68666016 11.25886719 11.06082031 10.76773438 10.41601562 10.26171875 C9.18415747 9.29429088 7.95381864 8.32492489 6.72509766 7.35351562 C5.17816308 6.13978717 3.61173195 4.95100485 2.04296875 3.765625 C1.36878906 3.18296875 0.69460937 2.6003125 0 2 C0 1.34 0 0.68 0 0 Z " fill="#E3E6F5" transform="translate(30,43)"/>
<path d="M0 0 C3.91828502 1.70944787 7.14918873 4.26881345 10.5 6.875 C11.06847656 7.30941406 11.63695312 7.74382812 12.22265625 8.19140625 C15.36212373 10.6170273 18.26891194 13.12164739 21 16 C14.52632643 15.83815816 11.44793185 12.18327563 7 8 C5.0937752 6.40727531 3.17577382 4.83070858 1.25 3.26171875 C0 2 0 2 0 0 Z " fill="#020569" transform="translate(163,271)"/>
<path d="M0 0 C2.70931419 0.15481795 4.46584039 0.48172081 6.4453125 2.40234375 C7.67679642 3.89771708 8.8429837 5.4462924 10 7 C5.94654898 7 4.1784671 5.41839888 1 3 C0.67 2.01 0.34 1.02 0 0 Z " fill="#F2F3FB" transform="translate(30,43)"/>
<path d="M0 0 C0.99 0.33 1.98 0.66 3 1 C2.79503906 1.56203125 2.59007812 2.1240625 2.37890625 2.703125 C1.88980087 5.66801124 2.63744214 7.07109289 3.9375 9.75 C4.50791016 10.94882813 4.50791016 10.94882813 5.08984375 12.171875 C5.39019531 12.77515625 5.69054687 13.3784375 6 14 C5.01 14 4.02 14 3 14 C0.56574762 9.03006806 -0.34615998 5.65394631 0 0 Z " fill="#3361F3" transform="translate(135,213)"/>
<path d="M0 0 C4.2742558 1.5830577 6.26531794 4.50568404 9 8 C8.67 8.66 8.34 9.32 8 10 C5.03 7.36 2.06 4.72 -1 2 C-0.67 1.34 -0.34 0.68 0 0 Z " fill="#3A67F4" transform="translate(151,137)"/>
<path d="M0 0 C4.59306496 1.4859916 7.43569245 3.85014682 11 7 C9.234375 7.67578125 9.234375 7.67578125 7 8 C5.078125 6.85546875 5.078125 6.85546875 3.25 5.1875 C2.63640625 4.64480469 2.0228125 4.10210937 1.390625 3.54296875 C0 2 0 2 0 0 Z " fill="#DCDCEA" transform="translate(103,102)"/>
<path d="M0 0 C0.33 0.99 0.66 1.98 1 3 C-1.61167966 6.58173211 -4.19824907 9.64029253 -8 12 C-8.66 12 -9.32 12 -10 12 C-8.48504725 7.7581323 -5.63597407 6.42398271 -2 4 C-0.61131484 1.89960669 -0.61131484 1.89960669 0 0 Z " fill="#2E5AF5" transform="translate(294,112)"/>
<path d="M0 0 C0.90492188 0.38285156 1.80984375 0.76570313 2.7421875 1.16015625 C4.10730469 1.73056641 4.10730469 1.73056641 5.5 2.3125 C6.19867188 2.61285156 6.89734375 2.91320312 7.6171875 3.22265625 C7.2871875 3.88265625 6.9571875 4.54265625 6.6171875 5.22265625 C5.15651551 4.77183156 3.69870718 4.31172088 2.2421875 3.84765625 C1.43007813 3.59242188 0.61796875 3.3371875 -0.21875 3.07421875 C-2.3828125 2.22265625 -2.3828125 2.22265625 -4.3828125 0.22265625 C-2.3828125 -0.77734375 -2.3828125 -0.77734375 0 0 Z " fill="#D9E2FF" transform="translate(272.3828125,278.77734375)"/>
<path d="M0 0 C4.37859255 0.50522222 6.81651224 3.17827222 10 6 C8.375 6.8125 8.375 6.8125 6 7 C2.75 4.6875 2.75 4.6875 0 2 C0 1.34 0 0.68 0 0 Z " fill="#DDDDEA" transform="translate(136,129)"/>
<path d="M0 0 C3.63 1.32 7.26 2.64 11 4 C7 6 7 6 4.640625 5.3203125 C3.85171875 4.92585938 3.0628125 4.53140625 2.25 4.125 C1.45078125 3.73570312 0.6515625 3.34640625 -0.171875 2.9453125 C-1.07679688 2.47738281 -1.07679688 2.47738281 -2 2 C-1.34 1.34 -0.68 0.68 0 0 Z " fill="#D2DDFF" transform="translate(233,261)"/>
<path d="M0 0 C4.05606165 0.46800711 7.46588679 0.87953208 11 3 C11 3.66 11 4.32 11 5 C6.87248551 4.39301257 3.6678852 2.96189209 0 1 C0 0.67 0 0.34 0 0 Z " fill="#D3DEFF" transform="translate(212,253)"/>
<path d="M0 0 C3.465 1.485 3.465 1.485 7 3 C7 3.66 7 4.32 7 5 C7.66 5.33 8.32 5.66 9 6 C4.87248551 5.39301257 1.6678852 3.96189209 -2 2 C-1.34 1.34 -0.68 0.68 0 0 Z " fill="#D6E0FF" transform="translate(253,270)"/>
<path d="M0 0 C1.98 0.495 1.98 0.495 4 1 C3.67 2.32 3.34 3.64 3 5 C1.68 5 0.36 5 -1 5 C-0.67 3.35 -0.34 1.7 0 0 Z " fill="#E3EAFF" transform="translate(319,149)"/>
<path d="M0 0 C1.98 0.495 1.98 0.495 4 1 C3.67 2.32 3.34 3.64 3 5 C1.68 5 0.36 5 -1 5 C-0.67 3.35 -0.34 1.7 0 0 Z " fill="#E6ECFF" transform="translate(309,149)"/>
<path d="M0 0 C1.98 0.495 1.98 0.495 4 1 C3.67 2.32 3.34 3.64 3 5 C1.68 5 0.36 5 -1 5 C-0.67 3.35 -0.34 1.7 0 0 Z " fill="#E8EEFF" transform="translate(299,149)"/>
</svg>
